<?xml version="1.0" encoding="UTF-8"?>
<svg xmlns="http://www.w3.org/2000/svg" width="24" height="24" viewBox="0 0 24 24" fill="none" aria-hidden="true">
    <path fill-rule="evenodd" clip-rule="evenodd"
        d="M12 .5C5.648.5.5 5.648.5 12c0 5.084 3.292 9.386 7.86 10.9.574.104.782-.25.782-.556 0-.274-.01-1-.016-1.96-3.197.695-3.873-1.54-3.873-1.54-.522-1.327-1.275-1.68-1.275-1.68-1.042-.712.08-.698.08-.698 1.152.081 1.758 1.184 1.758 1.184 1.024 1.753 2.687 1.247 3.342.953.104-.742.401-1.247.73-1.534-2.553-.29-5.239-1.277-5.239-5.68 0-1.255.448-2.28 1.182-3.085-.119-.29-.512-1.456.112-3.036 0 0 .964-.31 3.16 1.18a10.96 10.96 0 0 1 2.878-.387c.977.004 1.96.133 2.878.387 2.195-1.49 3.158-1.18 3.158-1.18.626 1.58.233 2.746.114 3.036.737.805 1.18 1.83 1.18 3.085 0 4.415-2.691 5.386-5.252 5.672.412.357.78 1.06.78 2.137 0 1.544-.014 2.788-.014 3.167 0 .308.206.667.788.554C20.71 21.382 24 17.083 24 12 24 5.648 18.352.5 12 .5z"
        fill="#1f2937" />
</svg>